<svg width="100%" height="100%" id="svg" viewBox="0 0 1440 390" xmlns="http://www.w3.org/2000/svg" class="transition duration-300 ease-in-out delay-150"><path d="M 0,400 L 0,150 C 50.17674271061885,167.159930212271 100.3534854212377,184.31986042454201 155,181 C 209.6465145787623,177.68013957545799 268.76280102566807,153.88048851410292 314,160 C 359.23719897433193,166.11951148589708 390.5953104760899,202.15818551904624 425,200 C 459.4046895239101,197.84181448095376 496.85595706997276,157.48676940971214 554,166 C 611.1440429300272,174.51323059028786 687.9808612440191,231.89473684210526 743,219 C 798.0191387559809,206.10526315789474 831.2205979539507,122.93428322186683 878,116 C 924.7794020460493,109.06571677813317 985.136746940178,178.36813027042746 1032,182 C 1078.863253059822,185.63186972957254 1112.2324142853365,123.59319569642338 1153,122 C 1193.7675857146635,120.40680430357662 1241.9335959184755,179.25908694387903 1291,194 C 1340.0664040815245,208.74091305612097 1390.0332020407623,179.3704565280605 1440,150 L 1440,400 L 0,400 Z" stroke="none" stroke-width="0" fill="#ffffff" fill-opacity="0.3" class="transition-all duration-300 ease-in-out delay-150 path-0" transform="rotate(-180 720 200)"></path></svg>

